# Blender v2.79 (sub 0) OBJ File: 'chessset.obj'
# www.blender.org
o PM3D_CHESS_SET_3
v 0.624382 0.692189 -0.427219
v 0.382002 0.395539 -0.667976
v 0.369021 0.652948 -0.443758
v 0.798107 0.403393 -0.621925
v 0.400339 0.987448 0.230817
v 0.649540 0.946369 0.220837
v 0.557917 1.626357 0.225001
v 0.158323 -0.018139 0.530697
v -0.115643 0.011876 0.271988
v 0.055292 -0.013117 -0.559286
v -0.095371 0.397183 -0.281384
v 0.149632 0.665938 -0.266738
v 0.110502 0.403685 -0.544824
v 0.105640 0.692791 0.070667
v -0.122000 0.397516 0.093962
v 0.399611 0.952724 -0.313670
v 0.466918 1.623874 -0.310632
v 0.602175 0.999991 -0.312621
v 0.791559 0.993665 0.002805
v 0.715902 1.617759 0.114720
v 1.133513 -0.011537 0.197361
v 0.645871 -0.016188 -0.701931
v 0.368329 0.695875 0.340852
v 0.310459 0.382633 0.584503
v 0.696476 0.410732 0.565355
v 0.245191 0.940984 -0.191024
v 0.227411 0.993817 0.054854
v 0.244829 1.621420 0.017397
v 0.768349 1.623172 -0.083232
v 0.355275 1.625021 0.182623
v 0.383929 2.270221 0.244324
v 0.478554 2.262289 0.270497
v 0.481685 2.237957 -0.376654
v 0.277478 1.615737 -0.179445
v 1.174741 0.008695 -0.190379
v 0.839214 0.692621 0.186410
v 1.146115 0.396245 0.041232
v 0.879095 0.704797 -0.183835
v 0.975325 0.390900 0.399402
v 0.632496 0.653030 0.364406
v 1.204765 0.146031 -0.023635
v 1.083332 0.160490 0.375916
v 0.610069 0.112595 0.689057
v 0.870015 0.009930 0.542835
v 1.087027 0.397462 -0.304016
v 1.081945 0.252411 -0.032995
v 1.003178 0.243008 -0.368428
v 0.488028 2.840205 -0.212610
v 0.676247 1.621143 -0.242087
v 1.126968 0.165624 -0.356121
v 0.872395 0.159688 -0.632109
v 1.035266 0.031497 -0.493743
v 0.013752 0.398983 0.364758
v 0.753435 1.018167 -0.179827
v -0.213592 0.085131 -0.181549
v 0.076888 0.154824 -0.600362
v 0.457052 0.138103 -0.758440
v 0.619462 2.463152 -0.378076
v 0.780090 1.930485 -0.073892
v 0.830231 2.265518 0.120372
v 0.706729 1.954937 0.131310
v 0.792721 2.585976 -0.210012
v 0.616937 2.924728 -0.035636
v 0.821205 2.550741 0.088874
v 0.475087 2.907286 0.047067
v 0.586994 2.676175 0.232795
v 0.742606 2.267759 -0.306216
v 0.670054 1.962648 -0.250793
v 0.865889 2.321404 -0.142668
v 0.678000 0.241582 0.520169
v 0.987506 0.247904 0.305401
v 0.015281 0.243823 0.297167
v -0.126724 0.156558 0.260153
v 0.120427 0.144618 0.554762
v 0.356225 0.249756 0.524444
v 0.535784 1.948895 0.230527
v 0.693289 2.393791 0.283994
v 0.395192 1.994978 -0.304938
v 0.162500 2.366749 -0.188512
v 0.345210 2.350128 -0.337014
v 0.319488 1.962074 0.162422
v 0.247129 1.977738 -0.088774
v -0.077370 0.251013 -0.179163
v 0.111017 1.709199 -0.030537
v 0.653335 0.246045 -0.607958
v 0.280433 1.667498 -0.358365
v 0.628396 1.676304 -0.404039
v 0.866017 1.676211 0.088083
v 0.834187 1.676526 -0.231144
v 0.602410 1.677181 0.346835
v 0.279538 1.673868 0.266684
v 0.213462 0.240152 -0.562910
v 0.306881 2.760721 -0.187570
v 0.103872 2.354454 0.003906
v 0.322297 2.465563 0.257319
v 0.171198 2.660383 -0.030205
v 0.343472 2.754807 0.102043
vt 0.342640 0.275377
vt 0.366094 0.304084
vt 0.367351 0.279174
vt 0.325828 0.303324
vt 0.757227 0.470179
vt 0.781343 0.466204
vt 0.772475 0.532006
vt 0.712186 0.664451
vt 0.737221 0.690963
vt 0.817663 0.674422
vt 0.268734 0.782635
vt 0.242727 0.781218
vt 0.268106 0.808128
vt 0.240130 0.748568
vt 0.268703 0.746313
vt 0.364390 0.250165
vt 0.357877 0.185219
vt 0.344789 0.245591
vt 0.090646 0.804909
vt 0.151039 0.815739
vt 0.086068 0.826008
vt 0.744442 0.570083
vt 0.831468 0.617272
vt 0.754130 0.441964
vt 0.748530 0.411652
vt 0.785883 0.414371
vt 0.216112 0.773891
vt 0.210999 0.750098
vt 0.150267 0.753722
vt 0.151563 0.796583
vt 0.752866 0.531876
vt 0.325202 0.679458
vt 0.327733 0.688615
vt 0.265110 0.688918
vt 0.379334 0.251301
vt 0.376209 0.186006
vt 0.781964 0.566094
vt 0.061514 0.822676
vt 0.032835 0.808627
vt 0.062693 0.786848
vt 0.032317 0.843287
vt 0.779693 0.437818
vt 0.263637 0.937107
vt 0.265035 0.975771
vt 0.248388 0.958492
vt 0.777523 0.385520
vt 0.802678 0.375585
vt 0.823320 0.390155
vt 0.032951 0.775218
vt 0.033525 0.744454
vt 0.018915 0.801445
vt 0.018005 0.768985
vt 0.504525 0.805221
vt 0.502171 0.742597
vt 0.446246 0.789346
vt 0.337621 0.185483
vt 0.562960 0.912124
vt 0.595421 0.919746
vt 0.564152 0.924103
vt 0.287927 0.549670
vt 0.266008 0.532651
vt 0.250246 0.545056
vt 0.719817 0.413234
vt 0.733807 0.372869
vt 0.317991 0.274157
vt 0.330151 0.243832
vt 0.308439 0.809528
vt 0.298932 0.772974
vt 0.292189 0.813502
vt 0.306199 0.534740
vt 0.904904 0.907525
vt 0.904291 0.849246
vt 0.891571 0.885733
vt 0.142940 0.923002
vt 0.175361 0.941801
vt 0.145306 0.942859
vt 0.206371 0.909830
vt 0.239150 0.926704
vt 0.202961 0.938753
vt 0.904580 0.334302
vt 0.904916 0.271887
vt 0.915409 0.311938
vt 0.879655 0.904641
vt 0.886676 0.934166
vt 0.180769 0.916347
vt 0.812868 0.412452
vt 0.784095 0.398002
vt 0.814047 0.398614
vt 0.018479 0.834191
vt 0.345077 0.549373
vt 0.283576 0.726649
vt 0.292020 0.730231
vt 0.293176 0.701722
vt 0.752958 0.398793
vt 0.719965 0.398219
vt 0.730139 0.388619
vt 0.910453 0.241560
vt 0.925695 0.284612
vt 0.895758 0.272654
vt 0.211615 0.733070
vt 0.149918 0.737734
vt 0.268561 0.720109
vt 0.239831 0.722422
vt 0.913275 0.931038
vt 0.935791 0.895062
vt 0.918112 0.896670
vt 0.889523 0.242835
vt 0.797443 0.965006
vt 0.833419 0.976273
vt 0.835088 0.955355
vt 0.282879 0.772743
vt 0.215099 0.952680
vt 0.938947 0.272199
vt 0.926995 0.242144
vt 0.861074 0.949719
vt 0.339838 0.318550
vt 0.865109 0.981443
vt 0.924380 0.962727
vt 0.890707 0.961875
vt 0.433573 0.526862
vt 0.440208 0.547118
vt 0.449247 0.531492
vt 0.118333 0.938676
vt 0.118365 0.907785
vt 0.418203 0.517949
vt 0.432517 0.511578
vt 0.401624 0.508498
vt 0.399045 0.523024
vt 0.916901 0.215266
vt 0.942411 0.215172
vt 0.885657 0.214946
vt 0.864492 0.920957
vt 0.836603 0.931047
vt 0.376585 0.534007
vt 0.392476 0.557922
vt 0.388374 0.538312
vt 0.444827 0.565164
vt 0.427513 0.565450
vt 0.413104 0.581558
vt 0.384343 0.565251
vt 0.408463 0.568610
vt 0.283930 0.809878
vt 0.382404 0.319120
vt 0.539781 0.878269
vt 0.525219 0.859275
vt 0.544140 0.835703
vt 0.874806 0.873847
vt 0.146051 0.905883
vt 0.175578 0.900520
vt 0.707296 0.375774
vt 0.921820 0.856937
vt 0.798632 0.946386
vt 0.787878 0.921864
vt 0.265531 0.904932
vt 0.252553 0.891615
vt 0.264957 0.878225
vt 0.250345 0.920971
vt 0.306020 0.729086
vt 0.799696 0.441649
vt 0.537444 0.899468
vt 0.305984 0.318844
vt 0.388581 0.277917
vt 0.392367 0.303295
vt 0.439755 0.764218
vt 0.891817 0.841067
vt 0.634990 0.919880
vt 0.596326 0.931631
vt 0.540516 0.822487
vt 0.342987 0.533122
vt 0.268945 0.675711
vt 0.250466 0.991923
vt 0.711012 0.595582
vt 0.367700 0.503645
vt 0.350574 0.491171
vt 0.375703 0.489919
vt 0.393676 0.500748
vt 0.870793 0.961854
vt 0.628167 0.910607
vt 0.769029 0.949687
vt 0.523662 0.359864
vt 0.562822 0.402351
vt 0.534833 0.417377
vt 0.515930 0.416119
vt 0.889794 0.291557
vt 0.150817 0.772771
vt 0.563395 0.374325
vt 0.759318 0.964915
vt 0.759890 0.936889
vt 0.093017 0.787236
vt 0.938073 0.299800
vt 0.787763 0.531174
vt 0.151367 0.781211
vt 0.811320 0.579590
vn -0.0517 0.6545 -0.7543
vn 0.0779 0.5891 -0.8043
vn 0.0399 -0.0007 0.9992
vn -0.1148 -0.9934 0.0063
vn -0.6347 0.6048 -0.4811
vn -0.7929 0.6068 -0.0568
vn 0.0042 0.0041 -1.0000
vn 0.8376 0.0036 0.5463
vn 0.0072 -1.0000 0.0013
vn -0.0056 0.6146 0.7888
vn -0.7268 0.6707 -0.1481
vn -0.9968 0.0231 -0.0770
vn 0.9637 0.0707 0.2573
vn -0.2047 0.0594 0.9770
vn 0.0936 0.9949 -0.0370
vn -0.5700 0.0414 -0.8206
vn 0.0880 -0.9952 -0.0426
vn 0.7152 0.6917 0.0998
vn 0.7308 0.5818 0.3571
vn 0.0362 0.6436 0.7645
vn 0.9563 -0.0236 0.2915
vn 0.5324 0.1659 0.8301
vn 0.5933 0.6078 -0.5278
vn 0.9286 -0.3062 -0.2095
vn -0.9999 0.0120 -0.0053
vn 0.3112 0.0705 -0.9477
vn 0.5348 0.8318 -0.1489
vn 0.4787 -0.2872 -0.8296
vn -0.4558 0.5974 0.6598
vn 0.0213 -0.8000 0.5996
vn 0.4950 0.6704 -0.5528
vn 0.6593 0.0068 -0.7519
vn -0.8185 -0.0350 -0.5735
vn 0.2907 0.0054 -0.9568
vn -0.4078 0.2440 -0.8799
vn 0.8738 -0.3351 0.3523
vn 0.8812 0.4719 -0.0284
vn -0.6705 0.2396 0.7022
vn 0.2783 -0.2353 -0.9312
vn 0.9760 -0.1983 0.0902
vn 0.5184 -0.4385 0.7342
vn 0.8855 -0.2002 0.4193
vn -0.1998 -0.5432 -0.8155
vn -0.0062 -1.0000 -0.0040
vn -0.5461 0.6825 0.4858
vn -0.3147 0.8356 0.4503
vn 0.0136 -0.1241 0.9922
vn -0.2760 -0.1710 0.9458
vn -0.7132 0.0026 0.7010
vn -0.5320 0.6763 0.5095
vn 0.0670 -0.2643 0.9621
vn -0.4766 -0.4931 0.7278
vn 0.1454 -0.3273 -0.9337
vn -0.6314 -0.1574 -0.7593
vn -0.3054 -0.1844 0.9342
vn -0.7726 -0.3101 -0.5540
vn -0.7078 0.5869 -0.3932
vn -0.5420 0.8320 0.1180
vn 0.6315 0.5325 0.5636
vn 0.6485 -0.2323 0.7249
vn -0.8289 -0.5380 0.1531
vn -0.5731 -0.3320 0.7492
vn -0.8306 0.0561 0.5540
vn -0.7998 0.2916 -0.5246
vn 0.4385 0.6204 0.6502
vn -0.1723 0.6096 0.7737
vn 0.1115 -0.1892 -0.9756
vn 0.7336 -0.1193 -0.6690
vn -0.8096 0.3594 -0.4641
vn -0.1325 0.2046 -0.9698
vn 0.2230 0.4346 -0.8726
vn 0.1016 -0.9321 -0.3475
vn 0.9599 0.2636 -0.0955
vn 0.8564 0.4503 0.2525
vn 0.5501 -0.8332 -0.0557
vn 0.3732 -0.9248 0.0736
vn -0.2662 0.3234 0.9080
vn 0.6733 0.2786 0.6849
vn -0.2283 0.3590 0.9050
vn -0.8163 0.2932 0.4977
vn 0.3933 -0.8260 0.4038
vn -0.0794 -0.9094 0.4083
vn -0.0519 -0.8299 -0.5556
vn -0.1511 -0.9489 -0.2770
vn -0.6232 -0.7485 -0.2268
vn -0.5915 -0.7685 0.2440
vn -0.9830 -0.1697 -0.0696
vn -0.7148 -0.4578 -0.5287
vn -0.7207 -0.3904 -0.5729
vn -0.0819 -0.4958 -0.8646
vn -0.4267 0.8352 -0.3470
vn -0.0651 0.8491 -0.5242
vn 0.4092 0.4825 -0.7744
vn 0.8080 -0.2857 -0.5153
vn -0.6779 -0.2595 0.6878
vn -0.2713 -0.2023 0.9410
vn -0.6026 0.2227 -0.7663
vn -0.7241 -0.1238 0.6784
vn -0.8339 0.4813 0.2702
vn -0.8890 -0.3950 0.2315
vn 0.7191 0.1932 -0.6675
vn 0.9471 -0.3097 0.0845
vn -0.4130 -0.9089 -0.0576
vn -0.7722 0.6334 0.0494
vn 0.9688 0.2214 0.1116
vn 0.6197 0.2580 -0.7412
vn 0.4263 0.6415 0.6378
vn 0.7011 0.4489 0.5540
vn -0.0981 -0.8963 0.4324
vn -0.3261 -0.9149 0.2379
vn 0.4253 0.6421 0.6378
vn 0.4772 -0.2751 0.8347
vn 0.4996 0.7235 -0.4764
vn 0.4836 -0.5082 -0.7127
vn 0.7996 0.4299 -0.4192
vn 0.7948 -0.2701 -0.5435
vn -0.4321 0.6857 -0.5858
vn -0.6237 0.0661 -0.7789
vn 0.7956 0.5907 -0.1341
vn 0.8939 -0.4208 -0.1545
vn 0.2931 0.8602 -0.4172
vn 0.1843 0.6689 -0.7202
vn -0.9988 -0.0208 -0.0444
vn 0.4950 0.5868 -0.6408
vn 0.6382 0.7516 0.1668
vn 0.2930 0.7740 0.5613
vn -0.2496 0.6954 -0.6739
vn -0.3847 -0.1723 -0.9068
vn -0.3777 -0.1359 -0.9159
vn 0.6444 0.7622 0.0618
vn 0.7219 -0.3858 0.5745
vn 0.0377 -0.9952 0.0906
vn -0.2623 0.9311 -0.2536
vn 0.3040 0.6819 0.6653
vn 0.3286 -0.8601 -0.3901
vn 0.6131 0.3016 -0.7302
vn 0.8400 -0.4924 0.2279
vn 0.5900 0.7881 0.1752
vn -0.9777 -0.0584 0.2017
vn -0.7662 -0.0061 0.6425
vn -0.7848 0.2366 0.5728
vn 0.9977 -0.0474 0.0477
vn 0.9530 0.3021 -0.0219
vn -0.3498 -0.1716 0.9210
vn -0.5313 -0.8448 -0.0637
vn -0.9851 0.0500 -0.1648
vn 0.9832 0.1360 -0.1214
vn -0.8086 0.2976 -0.5075
vn -0.6854 0.3827 0.6195
vn -0.5277 0.8453 0.0839
vn 0.0017 -0.4114 0.9115
vn 0.0282 0.7889 0.6139
vn -0.6832 0.3111 0.6607
vn -0.9199 0.3645 -0.1448
vn -0.6684 0.3257 0.6687
vn 0.0939 0.3425 0.9348
vn 0.7872 0.0615 -0.6136
vn 0.9659 0.2512 -0.0624
vn -0.0752 0.3432 -0.9363
vn 0.6498 0.3060 -0.6959
vn 0.9791 0.0083 -0.2033
vn 0.9181 0.3700 -0.1420
vn -0.7249 0.5872 0.3602
vn -0.8754 -0.2003 0.4399
vn -0.5625 0.3953 -0.7262
vn -0.9207 0.3608 -0.1488
vn -0.5948 0.3703 -0.7135
vn -0.0018 0.3982 -0.9173
vn -0.0087 0.4400 0.8980
vn 0.5784 0.3312 0.7454
vn 0.6208 0.3599 0.6965
vn -0.1388 0.1258 0.9823
vn 0.4384 0.4424 0.7823
vn 0.4901 -0.2730 0.8278
vn 0.1754 -0.9297 0.3238
vn 0.5735 0.0723 0.8160
vn -0.9147 -0.2749 -0.2963
vn -0.9446 0.1770 -0.2765
vn 0.6555 0.7472 -0.1094
vn 0.9728 0.0594 -0.2241
vn -0.3102 0.6155 -0.7245
vn -0.4117 -0.1600 -0.8971
vn 0.3366 -0.9236 -0.1833
vn 0.8633 0.0588 -0.5013
vn 0.2751 -0.1743 -0.9455
vn 0.6427 0.1272 -0.7555
vn 0.7977 0.0911 0.5962
vn 0.9884 0.0472 0.1440
vn 0.2078 -0.9636 -0.1680
vn 0.8895 -0.1750 -0.4221
s 1
f 1/1/1 2/2/1 3/3/1
f 1/1/2 4/4/2 2/2/2
f 5/5/3 6/6/3 7/7/3
f 8/8/4 9/9/4 10/10/4
f 11/11/5 12/12/5 13/13/5
f 14/14/6 11/11/6 15/15/6
f 16/16/7 17/17/7 18/18/7
f 19/19/8 20/20/8 6/21/8
f 21/22/9 8/8/9 22/23/9
f 23/24/10 24/25/10 25/26/10
f 12/12/11 11/11/11 14/14/11
f 26/27/12 27/28/12 28/29/12
f 29/30/13 20/20/13 19/19/13
f 5/5/14 7/7/14 30/31/14
f 31/32/15 32/33/15 33/34/15
f 17/17/16 26/35/16 34/36/16
f 21/22/17 22/23/17 35/37/17
f 36/38/18 37/39/18 38/40/18
f 36/38/19 39/41/19 37/39/19
f 40/42/20 23/24/20 25/26/20
f 41/43/21 42/44/21 21/45/21
f 43/46/22 44/47/22 42/48/22
f 38/40/23 45/49/23 4/50/23
f 46/51/24 47/52/24 37/39/24
f 33/53/25 32/54/25 48/55/25
f 18/18/26 17/17/26 49/56/26
f 47/57/27 46/58/27 50/59/27
f 22/60/28 51/61/28 52/62/28
f 24/25/29 23/24/29 53/63/29
f 43/46/30 8/64/30 44/47/30
f 1/1/31 38/65/31 4/4/31
f 49/56/32 54/66/32 18/18/32
f 10/67/33 55/68/33 56/69/33
f 22/60/34 57/70/34 51/61/34
f 33/71/35 48/72/35 58/73/35
f 59/74/36 60/75/36 61/76/36
f 62/77/37 63/78/37 64/79/37
f 65/80/38 32/81/38 66/82/38
f 67/83/39 68/84/39 33/71/39
f 60/75/40 59/74/40 69/85/40
f 39/86/41 70/87/41 71/88/41
f 37/39/42 39/41/42 71/89/42
f 57/70/43 22/60/43 10/90/43
f 8/8/44 10/10/44 22/23/44
f 72/91/45 73/92/45 74/93/45
f 75/94/46 72/95/46 74/96/46
f 76/97/47 77/98/47 32/81/47
f 76/97/48 32/81/48 31/99/48
f 27/28/49 5/100/49 30/101/49
f 14/14/50 53/102/50 23/103/50
f 70/87/51 25/26/51 24/25/51
f 75/94/52 24/25/52 72/95/52
f 68/84/53 78/104/53 33/71/53
f 79/105/54 80/106/54 78/104/54
f 81/107/55 76/97/55 31/99/55
f 79/108/56 78/109/56 82/110/56
f 83/111/57 56/69/57 55/68/57
f 72/91/58 83/111/58 73/92/58
f 63/78/59 66/112/59 64/79/59
f 60/113/60 77/98/60 61/114/60
f 83/111/61 72/91/61 15/15/61
f 72/95/62 24/25/62 53/63/62
f 28/29/63 27/28/63 30/101/63
f 84/115/64 82/110/64 78/109/64
f 70/87/65 43/46/65 71/88/65
f 43/46/66 75/94/66 74/96/66
f 4/4/67 85/116/67 2/2/67
f 45/49/68 47/52/68 4/50/68
f 86/117/69 84/115/69 78/109/69
f 86/118/70 78/104/70 87/119/70
f 87/119/71 78/104/71 68/84/71
f 49/120/72 17/121/72 87/122/72
f 59/74/73 88/123/73 89/124/73
f 88/123/74 59/74/74 61/76/74
f 29/125/75 89/126/75 88/127/75
f 20/128/76 29/125/76 88/127/76
f 90/129/77 76/97/77 81/107/77
f 88/130/78 61/114/78 90/129/78
f 90/129/79 81/107/79 91/131/79
f 84/115/80 91/132/80 81/133/80
f 90/134/81 20/128/81 88/127/81
f 90/134/82 30/135/82 7/136/82
f 17/121/83 86/137/83 87/122/83
f 17/121/84 34/138/84 86/137/84
f 34/138/85 84/139/85 86/137/85
f 91/140/86 84/139/86 28/141/86
f 83/111/87 15/15/87 11/11/87
f 92/142/88 83/111/88 11/11/88
f 11/11/89 13/13/89 92/142/89
f 85/116/90 92/143/90 2/2/90
f 83/111/91 92/142/91 56/69/91
f 85/144/92 57/145/92 92/146/92
f 58/73/93 48/72/93 62/147/93
f 69/85/94 68/148/94 67/149/94
f 9/150/95 8/64/95 74/96/95
f 43/46/96 74/96/96 8/64/96
f 80/106/97 79/105/97 93/151/97
f 94/152/98 81/133/98 95/153/98
f 81/133/99 82/110/99 84/115/99
f 94/152/100 82/110/100 81/133/100
f 50/154/101 52/155/101 51/156/101
f 41/43/102 21/45/102 35/157/102
f 9/158/103 55/68/103 10/67/103
f 83/111/104 55/68/104 73/92/104
f 38/40/105 19/19/105 36/38/105
f 54/66/106 38/65/106 18/18/106
f 40/42/107 25/26/107 36/159/107
f 19/19/108 6/21/108 36/38/108
f 90/134/109 91/140/109 30/135/109
f 91/140/110 28/141/110 30/135/110
f 36/159/111 25/26/111 39/86/111
f 39/86/112 25/26/112 70/87/112
f 47/57/113 50/59/113 51/160/113
f 47/161/114 85/116/114 4/4/114
f 89/124/115 68/148/115 59/74/115
f 69/85/116 59/74/116 68/148/116
f 12/162/117 3/3/117 13/163/117
f 16/16/118 26/35/118 17/17/118
f 38/40/119 37/39/119 45/49/119
f 37/39/120 47/52/120 45/49/120
f 47/57/121 51/160/121 85/144/121
f 51/160/122 57/145/122 85/144/122
f 32/54/123 65/164/123 48/55/123
f 63/165/124 62/147/124 48/72/124
f 42/166/125 41/167/125 46/58/125
f 71/88/126 43/46/126 42/48/126
f 92/146/127 57/145/127 56/168/127
f 10/90/128 56/169/128 57/70/128
f 80/106/129 33/71/129 78/104/129
f 80/170/130 31/32/130 33/34/130
f 42/44/131 44/171/131 21/45/131
f 8/8/132 21/22/132 44/172/132
f 63/173/133 48/174/133 65/175/133
f 65/175/134 66/176/134 63/173/134
f 49/120/135 87/122/135 89/126/135
f 89/177/136 87/119/136 68/84/136
f 37/39/137 71/89/137 46/51/137
f 46/58/138 71/178/138 42/166/138
f 9/158/139 73/92/139 55/68/139
f 74/93/140 73/92/140 9/158/140
f 96/179/141 94/152/141 95/153/141
f 80/180/142 97/181/142 95/182/142
f 80/180/143 95/182/143 31/183/143
f 81/107/144 31/99/144 95/184/144
f 28/141/145 84/139/145 34/138/145
f 28/29/146 34/185/146 26/27/146
f 80/180/147 93/186/147 97/181/147
f 79/108/148 96/179/148 93/187/148
f 96/179/149 95/153/149 97/188/149
f 93/187/150 96/179/150 97/188/150
f 75/94/151 70/87/151 24/25/151
f 75/94/152 43/46/152 70/87/152
f 14/14/153 23/103/153 27/28/153
f 14/14/154 27/28/154 26/27/154
f 27/28/155 23/103/155 5/100/155
f 5/5/156 23/24/156 6/6/156
f 69/85/157 67/149/157 62/77/157
f 69/85/158 62/77/158 64/79/158
f 16/16/159 18/18/159 1/1/159
f 38/65/160 1/1/160 18/18/160
f 19/19/161 54/189/161 29/30/161
f 38/40/162 54/189/162 19/19/162
f 53/102/163 14/14/163 15/15/163
f 15/15/164 72/91/164 53/102/164
f 3/3/165 12/162/165 26/35/165
f 26/27/166 12/12/166 14/14/166
f 16/16/167 3/3/167 26/35/167
f 3/3/168 16/16/168 1/1/168
f 6/6/169 23/24/169 40/42/169
f 40/42/170 36/159/170 6/6/170
f 64/190/171 66/82/171 77/98/171
f 77/98/172 66/82/172 32/81/172
f 76/97/173 90/129/173 61/114/173
f 77/98/174 76/97/174 61/114/174
f 90/134/175 7/136/175 20/128/175
f 20/191/176 7/7/176 6/6/176
f 94/152/177 79/108/177 82/110/177
f 79/108/178 94/152/178 96/179/178
f 46/58/179 41/167/179 50/59/179
f 35/157/180 50/154/180 41/43/180
f 3/3/181 2/2/181 13/163/181
f 2/2/182 92/143/182 13/163/182
f 29/125/183 49/120/183 89/126/183
f 54/189/184 49/192/184 29/30/184
f 67/83/185 33/71/185 58/73/185
f 67/83/186 58/73/186 62/147/186
f 60/113/187 64/190/187 77/98/187
f 64/79/188 60/75/188 69/85/188
f 35/37/189 22/23/189 52/193/189
f 52/155/190 50/154/190 35/157/190
