# Blender v2.79 (sub 0) OBJ File: 'chessset.obj'
# www.blender.org
o PM3D_CHESS_SET_3.004
v -5.020316 -0.016144 -0.205997
v -4.407166 -0.016358 -0.729255
v -4.328803 -0.017823 0.481157
v -4.178869 0.678180 -0.199584
v -3.895690 0.334211 -0.322452
v -4.262932 0.347199 -0.645287
v -3.797590 -0.012309 -0.035595
v -4.364793 0.658539 0.162338
v -4.510993 0.334502 0.437583
v -4.163842 0.320304 0.395016
v -3.916758 0.331153 0.123984
v -4.020165 0.099950 0.421844
v -4.542266 0.637584 -0.364873
v -4.366558 0.675021 -0.365286
v -4.134672 0.573431 0.050315
v -3.964503 0.020231 -0.531689
v -3.962876 0.212863 0.161339
v -3.796394 0.133683 -0.017357
v -3.893482 0.211283 -0.237646
v -4.678275 0.648785 -0.214576
v -4.910802 0.324154 -0.395916
v -4.977345 0.337585 0.017678
v -4.741233 0.584370 -0.007690
v -4.760768 0.328910 0.330453
v -4.541872 1.122206 -0.298192
v -4.624263 0.785697 0.052070
v -4.647238 1.128593 -0.167381
v -4.190071 1.143442 -0.103018
v -4.239288 0.834037 0.038259
v -4.597519 1.124331 0.052569
v -4.579173 0.572268 0.186618
v -4.327965 1.207460 -0.353529
v -4.338693 1.130916 0.114364
v -4.466183 1.349058 0.041497
v -4.591120 1.355068 -0.103905
v -4.562926 1.293572 0.207272
v -4.318027 1.494624 0.107927
v -4.303615 1.693933 -0.056554
v -4.522703 1.703967 0.010765
v -4.954713 0.056193 -0.499728
v -4.659029 0.329484 -0.612029
v -4.724941 0.136586 -0.668609
v -4.238653 0.132870 -0.731382
v -4.535817 0.129642 0.529620
v -4.684443 -0.000672 0.448354
v -4.887952 0.137373 0.330610
v -4.627831 1.509693 0.055759
v -4.634007 1.566608 -0.254756
v -4.412374 1.343857 -0.269446
v -5.065763 0.131332 -0.022943
v -4.969970 0.009007 0.191791
v -4.521929 0.210876 0.424096
v -4.811779 0.208957 0.260086
v -4.167297 0.215815 -0.579758
v -3.849720 0.136916 -0.390008
v -4.360168 1.688676 -0.256268
v -4.398188 1.487084 -0.340385
v -4.201813 1.486964 -0.150593
v -4.570075 1.318913 -0.388865
v -4.299056 1.353491 -0.064053
v -4.137811 1.322659 -0.252355
v -4.187225 0.215757 0.369965
v -4.147303 1.311175 0.062524
v -4.859009 0.217803 -0.436754
v -4.490906 0.211757 -0.638708
v -4.751297 1.302540 -0.168425
v -4.960224 0.211467 -0.034266
vt 0.664174 0.123322
vt 0.714809 0.063988
vt 0.597678 0.056405
vt 0.677836 0.869990
vt 0.650433 0.903275
vt 0.685971 0.902018
vt 0.647684 0.005000
vt 0.756569 0.070451
vt 0.742420 0.039094
vt 0.776014 0.037720
vt 0.050182 0.879714
vt 0.016599 0.911025
vt 0.016895 0.867824
vt 0.603418 0.026538
vt 0.713001 0.873918
vt 0.695998 0.870295
vt 0.040045 0.903896
vt 0.695690 0.021152
vt 0.117589 0.756804
vt 0.100298 0.772915
vt 0.078979 0.763520
vt 0.816734 0.301145
vt 0.848149 0.318693
vt 0.846849 0.278670
vt 0.822966 0.281125
vt 0.847687 0.248403
vt 0.712963 0.827022
vt 0.803484 0.275342
vt 0.770304 0.296578
vt 0.095203 0.889058
vt 0.065263 0.902729
vt 0.734047 0.115525
vt 0.731460 0.082756
vt 0.735823 0.062103
vt 0.692263 0.818772
vt 0.093993 0.910094
vt 0.770715 0.275294
vt 0.646755 0.959695
vt 0.632686 0.947605
vt 0.662799 0.950333
vt 0.101400 0.864816
vt 0.194761 0.526300
vt 0.196155 0.545587
vt 0.174956 0.546558
vt 0.692598 0.116974
vt 0.748664 0.904248
vt 0.724300 0.903732
vt 0.699928 0.937199
vt 0.730679 0.922399
vt 0.683621 0.922759
vt 0.657092 0.933659
vt 0.789918 0.016397
vt 0.740019 0.019270
vt 0.760052 0.005000
vt 0.725636 0.006660
vt 0.705943 0.020018
vt 0.005152 0.914640
vt 0.005000 0.876030
vt 0.015550 0.937252
vt 0.048054 0.613129
vt 0.048634 0.599058
vt 0.033089 0.597678
vt 0.811856 0.165480
vt 0.816004 0.145009
vt 0.794558 0.166565
vt 0.881078 0.300315
vt 0.866806 0.282601
vt 0.874078 0.328739
vt 0.625680 0.118450
vt 0.600853 0.090820
vt 0.878645 0.261822
vt 0.741362 0.027131
vt 0.713315 0.026945
vt 0.045874 0.737023
vt 0.064236 0.767754
vt 0.027581 0.627726
vt 0.168326 0.496974
vt 0.142486 0.512702
vt 0.142633 0.486203
vt 0.789505 0.133197
vt 0.793185 0.152705
vt 0.774181 0.152716
vt 0.715692 0.807986
vt 0.636542 0.975868
vt 0.618320 0.991471
vt 0.616665 0.964902
vt 0.142798 0.751261
vt 0.773752 0.027603
vt 0.005438 0.842924
vt 0.648790 0.990553
vt 0.505216 0.215110
vt 0.485929 0.231026
vt 0.485188 0.206010
vt 0.472272 0.214384
vt 0.471339 0.194508
vt 0.164782 0.527758
vt 0.180422 0.512214
vt 0.858439 0.322645
vt 0.708031 0.915125
vt 0.743652 0.914540
vt 0.718250 0.038553
vt 0.754338 0.260324
vt 0.753470 0.296679
vt 0.759094 0.116162
vt 0.770922 0.309237
vt 0.751886 0.318011
vt 0.626443 0.932105
vt 0.605110 0.949642
vt 0.737396 0.131902
vt 0.777614 0.133606
vt 0.111436 0.905078
vt 0.112546 0.874607
vt 0.673863 0.807624
vt 0.676716 0.914732
vt 0.778837 0.062215
vt 0.768713 0.087434
vt 0.859053 0.283697
vt 0.859295 0.255213
vt 0.866222 0.248388
vt 0.005000 0.547215
vt 0.019128 0.548980
vt 0.015863 0.591481
vt 0.019440 0.512919
vt 0.014290 0.602032
vt 0.817819 0.315689
vt 0.645984 0.922367
vt 0.698006 0.007596
vt 0.752913 0.930179
vt 0.008149 0.499208
vt 0.161812 0.518175
vt 0.504707 0.195784
vt 0.795462 0.027323
vt 0.824139 0.262322
vt 0.196597 0.512643
vn -0.0013 -1.0000 -0.0011
vn 0.5231 0.6341 -0.5695
vn 0.0087 -1.0000 -0.0018
vn 0.1210 0.6104 0.7828
vn 0.7785 0.6263 0.0410
vn 0.3928 -0.8305 0.3949
vn -0.1337 0.6189 -0.7740
vn 0.7085 0.6867 0.1625
vn 0.1298 -0.9856 -0.1083
vn 0.4997 0.8622 0.0835
vn -0.7649 0.6280 -0.1435
vn -0.6223 0.6415 0.4487
vn -0.0314 0.1363 -0.9902
vn -0.7228 0.6910 -0.0048
vn -0.9834 0.0464 0.1754
vn 0.9635 -0.0319 0.2657
vn -0.3791 0.0286 0.9249
vn -0.1960 0.6847 0.7020
vn -0.2653 0.0405 -0.9633
vn 0.8152 0.1282 0.5648
vn -0.9722 0.0765 0.2212
vn -0.1949 0.9587 0.2071
vn 0.8824 0.1159 -0.4561
vn 0.2593 0.6035 0.7540
vn -0.2415 -0.9284 -0.2826
vn -0.5036 0.6486 -0.5707
vn -0.1260 0.1283 -0.9837
vn 0.3939 -0.4561 -0.7980
vn 0.6618 -0.0314 -0.7490
vn 0.4974 0.6490 -0.5757
vn 0.2024 -0.0375 0.9786
vn -0.4916 0.0178 0.8706
vn 0.9355 -0.3130 0.1639
vn 0.5472 0.6518 0.5250
vn -0.5947 -0.6415 0.4845
vn -0.5877 -0.5453 -0.5977
vn -0.9745 -0.0231 -0.2233
vn -0.1015 -0.9920 0.0756
vn -0.8839 -0.4463 0.1401
vn -0.2923 0.8107 0.5072
vn 0.3984 0.8642 -0.3074
vn 0.7519 0.6513 -0.1019
vn -0.9771 -0.2119 -0.0194
vn -0.3912 0.8740 -0.2882
vn -0.1869 0.4081 -0.8936
vn 0.6853 0.1666 -0.7090
vn -0.0640 -0.4253 -0.9028
vn 0.0823 0.9924 -0.0920
vn 0.7095 0.5761 0.4058
vn 0.1945 0.6208 0.7595
vn 0.7175 -0.3868 -0.5794
vn 0.9976 0.0506 0.0474
vn 0.2353 0.9710 0.0425
vn 0.0865 0.9285 0.3612
vn 0.8841 0.2578 0.3898
vn 0.6504 -0.6857 -0.3267
vn 0.8459 -0.3628 0.3910
vn -0.1726 -0.2581 0.9506
vn -0.7784 0.5664 -0.2706
vn -0.2244 0.8719 -0.4352
vn -0.4700 -0.2893 0.8339
vn 0.1161 -0.1179 0.9862
vn -0.8746 -0.2173 0.4333
vn -0.2335 0.1110 0.9660
vn -0.8445 -0.5041 0.1811
vn -0.7008 -0.3790 -0.6043
vn -0.3807 0.9000 0.2124
vn -0.2570 0.9562 -0.1403
vn -0.1613 -0.6477 0.7446
vn 0.3309 -0.0809 0.9402
vn 0.9641 -0.2650 0.0194
vn 0.6781 -0.5966 0.4293
vn 0.6275 -0.5982 -0.4983
vn 0.2820 0.3267 -0.9021
vn -0.0926 0.6442 -0.7593
vn -0.4362 -0.4458 -0.7817
vn 0.6585 0.1079 -0.7448
vn -0.0877 0.0994 -0.9912
vn 0.7384 -0.0763 0.6701
vn 0.1578 -0.2633 0.9517
vn 0.5099 0.6722 0.5368
vn 0.6756 0.0375 0.7363
vn 0.0927 0.9431 -0.3194
vn -0.0582 0.9898 -0.1299
vn -0.9853 -0.0694 -0.1563
vn -0.8218 0.0154 0.5695
vn -0.9065 -0.3518 -0.2335
vn -0.6508 -0.0256 -0.7588
vn -0.5637 0.7806 0.2702
vn -0.6082 0.7812 -0.1407
vn 0.8912 -0.0634 0.4492
vn 0.9899 0.0096 -0.1416
vn -0.1445 0.2968 0.9439
vn -0.8638 0.4923 0.1074
vn -0.5252 0.6696 -0.5252
vn -0.7348 0.0930 -0.6719
vn -0.0966 0.6127 -0.7844
vn 0.5068 0.6332 -0.5849
vn 0.0817 0.8577 -0.5076
vn 0.1729 -0.3360 -0.9259
vn -0.8906 0.0863 0.4465
vn -0.6340 -0.3439 0.6926
vn -0.7713 0.1115 -0.6267
vn -0.7132 -0.4300 -0.5535
vn -0.2980 0.7750 0.5574
vn 0.0880 0.7837 0.6149
vn -0.5167 0.8133 0.2675
vn -0.8548 -0.2926 0.4286
vn -0.3898 -0.5044 -0.7705
vn -0.6059 0.5736 -0.5513
vn 0.6358 0.2578 -0.7275
vn 0.8387 -0.4468 -0.3115
vn 0.0346 0.9987 -0.0361
vn 0.8208 0.5155 -0.2460
vn 0.4168 0.7970 0.4371
vn 0.6449 -0.3115 0.6979
vn -0.4245 -0.3678 -0.8274
vn 0.6395 -0.3912 -0.6619
vn -0.0528 -0.9973 0.0507
vn -0.1035 -0.4387 0.8927
vn -0.5352 0.6886 0.4893
vn -0.8481 0.5212 -0.0958
vn -0.1102 0.5133 0.8511
vn -0.7378 0.2415 0.6304
vn 0.1023 0.9738 0.2029
vn 0.4016 -0.6857 0.6070
vn -0.3921 -0.0654 0.9176
vn -0.3132 0.6455 0.6966
vn 0.4947 0.2373 0.8360
vn 0.9281 0.3722 -0.0081
s 1
f 1/1/1 2/2/1 3/3/1
f 4/4/2 5/5/2 6/6/2
f 3/3/3 2/2/3 7/7/3
f 8/8/4 9/9/4 10/10/4
f 4/11/5 11/12/5 5/13/5
f 3/3/6 7/7/6 12/14/6
f 13/15/7 14/16/7 6/6/7
f 4/11/8 15/17/8 11/12/8
f 7/7/9 2/2/9 16/18/9
f 17/19/10 18/20/10 19/21/10
f 20/22/11 21/23/11 22/24/11
f 23/25/12 22/24/12 24/26/12
f 14/16/13 13/15/13 25/27/13
f 22/24/14 23/25/14 20/22/14
f 20/22/15 26/28/15 27/29/15
f 4/11/16 28/30/16 29/31/16
f 8/8/17 30/32/17 26/33/17
f 8/8/18 31/34/18 9/9/18
f 14/16/19 25/27/19 32/35/19
f 28/30/20 33/36/20 29/31/20
f 26/28/21 30/37/21 27/29/21
f 34/38/22 35/39/22 36/40/22
f 32/41/23 28/30/23 4/11/23
f 37/42/24 38/43/24 39/44/24
f 1/1/25 40/45/25 2/2/25
f 21/46/26 13/15/26 41/47/26
f 2/48/27 42/49/27 43/50/27
f 2/48/28 43/50/28 16/51/28
f 4/4/29 14/16/29 32/35/29
f 14/16/30 4/4/30 6/6/30
f 12/52/31 44/53/31 3/54/31
f 45/55/32 44/53/32 46/56/32
f 11/12/33 17/57/33 19/58/33
f 10/59/34 11/12/34 15/17/34
f 35/60/35 34/61/35 47/62/35
f 35/63/36 48/64/36 49/65/36
f 1/66/37 50/67/37 40/68/37
f 51/69/38 1/1/38 45/70/38
f 51/71/39 50/67/39 1/66/39
f 52/72/40 53/73/40 46/56/40
f 54/74/41 19/21/41 55/75/41
f 19/21/42 18/20/42 55/75/42
f 35/60/43 47/62/43 48/76/43
f 39/77/44 56/78/44 48/79/44
f 48/64/45 56/80/45 57/81/45
f 58/82/46 57/81/46 56/80/46
f 32/35/47 25/27/47 59/83/47
f 60/84/48 61/85/48 49/86/48
f 17/19/49 12/87/49 18/20/49
f 12/52/50 62/88/50 44/53/50
f 19/58/51 54/89/51 5/13/51
f 19/58/52 5/13/52 11/12/52
f 63/90/53 61/85/53 60/84/53
f 36/40/54 63/90/54 34/38/54
f 38/91/55 37/92/55 58/93/55
f 60/94/56 49/95/56 58/93/56
f 60/94/57 58/93/57 37/92/57
f 37/42/58 47/96/58 34/97/58
f 64/98/59 40/68/59 50/67/59
f 65/99/60 42/49/60 64/100/60
f 52/72/61 24/101/61 53/73/61
f 52/72/62 10/10/62 9/9/62
f 30/37/63 36/102/63 66/103/63
f 8/8/64 33/104/64 30/32/64
f 30/37/65 66/103/65 27/29/65
f 25/105/66 66/103/66 59/106/66
f 66/107/67 36/40/67 35/39/67
f 66/107/68 35/39/68 59/108/68
f 30/32/69 33/104/69 36/109/69
f 33/104/70 63/110/70 36/109/70
f 63/111/71 28/30/71 61/112/71
f 28/30/72 63/111/72 33/36/72
f 28/30/73 32/41/73 61/112/73
f 61/113/74 32/35/74 59/83/74
f 13/15/75 6/6/75 41/47/75
f 41/47/76 65/99/76 64/100/76
f 5/5/77 54/114/77 6/6/77
f 6/6/78 65/99/78 41/47/78
f 11/12/79 10/59/79 17/57/79
f 62/88/80 10/10/80 52/72/80
f 8/8/81 10/10/81 15/115/81
f 29/116/82 33/104/82 8/8/82
f 49/86/83 61/85/83 59/108/83
f 35/39/84 49/86/84 59/108/84
f 22/24/85 21/23/85 67/117/85
f 22/24/86 53/118/86 24/26/86
f 67/117/87 21/23/87 64/98/87
f 21/46/88 41/47/88 64/100/88
f 67/117/89 50/67/89 46/119/89
f 64/98/90 50/67/90 67/117/90
f 7/120/91 18/121/91 12/122/91
f 7/120/92 55/123/92 18/121/92
f 37/42/93 39/44/93 47/96/93
f 47/62/94 39/124/94 48/76/94
f 20/22/95 13/125/95 21/23/95
f 13/125/96 20/22/96 25/105/96
f 65/99/97 43/50/97 42/49/97
f 54/114/98 55/126/98 43/50/98
f 54/114/99 43/50/99 65/99/99
f 65/99/100 6/6/100 54/114/100
f 51/71/101 46/119/101 50/67/101
f 51/127/102 45/55/102 46/56/102
f 20/22/103 27/29/103 25/105/103
f 27/29/104 66/103/104 25/105/104
f 44/53/105 52/72/105 46/56/105
f 44/53/106 62/88/106 52/72/106
f 53/118/107 67/117/107 46/119/107
f 53/118/108 22/24/108 67/117/108
f 40/128/109 42/49/109 2/48/109
f 64/100/110 42/49/110 40/128/110
f 55/126/111 16/51/111 43/50/111
f 7/120/112 16/129/112 55/123/112
f 38/130/113 56/78/113 39/77/113
f 38/91/114 58/93/114 56/131/114
f 62/88/115 12/52/115 17/132/115
f 17/132/116 10/10/116 62/88/116
f 49/65/117 48/64/117 57/81/117
f 49/65/118 57/81/118 58/82/118
f 45/70/119 1/1/119 3/3/119
f 3/54/120 44/53/120 45/55/120
f 31/133/121 23/25/121 24/26/121
f 23/25/122 26/28/122 20/22/122
f 26/33/123 31/34/123 8/8/123
f 26/28/124 23/25/124 31/133/124
f 63/90/125 60/84/125 34/38/125
f 60/134/126 37/42/126 34/97/126
f 9/9/127 24/101/127 52/72/127
f 31/34/128 24/101/128 9/9/128
f 15/115/129 29/116/129 8/8/129
f 4/11/130 29/31/130 15/17/130
